<mxfile host="app.diagrams.net" modified="2024-03-26T17:58:17.897Z" agent="Mozilla/5.0 (Windows NT 10.0; Win64; x64) AppleWebKit/537.36 (KHTML, like Gecko) Chrome/123.0.0.0 Safari/537.36" etag="DXbVcNC0dSHevM03zJch" version="24.0.6" type="device">
  <diagram name="หน้า-1" id="TkGlzdMm7sgDq_rXZbFi">
    <mxGraphModel dx="1367" dy="738" grid="1" gridSize="10" guides="1" tooltips="1" connect="1" arrows="1" fold="1" page="1" pageScale="1" pageWidth="827" pageHeight="1169" math="0" shadow="0">
      <root>
        <mxCell id="0" />
        <mxCell id="1" parent="0" />
        <mxCell id="h4A4DJFyEhcsKV__63Zm-1" value="&lt;font style=&quot;font-size: 21px;&quot;&gt;&lt;b&gt;Start&lt;/b&gt;&lt;/font&gt;" style="strokeWidth=2;html=1;shape=mxgraph.flowchart.terminator;whiteSpace=wrap;" parent="1" vertex="1">
          <mxGeometry x="284" y="40" width="260" height="120" as="geometry" />
        </mxCell>
        <mxCell id="h4A4DJFyEhcsKV__63Zm-6" style="edgeStyle=orthogonalEdgeStyle;rounded=0;orthogonalLoop=1;jettySize=auto;html=1;entryX=0.5;entryY=0;entryDx=0;entryDy=0;" parent="1" source="h4A4DJFyEhcsKV__63Zm-2" target="h4A4DJFyEhcsKV__63Zm-5" edge="1">
          <mxGeometry relative="1" as="geometry" />
        </mxCell>
        <mxCell id="h4A4DJFyEhcsKV__63Zm-2" value="&lt;font style=&quot;font-size: 16px;&quot;&gt;print&amp;nbsp;&lt;/font&gt;&lt;div&gt;&lt;span style=&quot;font-family: Consolas, &amp;quot;Courier New&amp;quot;, monospace; white-space: pre;&quot;&gt;&lt;font style=&quot;font-size: 16px;&quot;&gt;&quot;&lt;/font&gt;&lt;/span&gt;&lt;span style=&quot;font-family: Consolas, &amp;quot;Courier New&amp;quot;, monospace; font-size: 14px; white-space: pre;&quot;&gt;เลือกขนาดที่ต้องการจะวาด&lt;/span&gt;&lt;span style=&quot;font-family: Consolas, &amp;quot;Courier New&amp;quot;, monospace; font-size: 14px; white-space: pre;&quot;&gt;:&lt;/span&gt;&lt;span style=&quot;font-family: Consolas, &amp;quot;Courier New&amp;quot;, monospace; font-size: 16px; white-space: pre;&quot;&gt;&quot;&lt;/span&gt;&lt;br&gt;&lt;/div&gt;" style="strokeWidth=2;html=1;shape=mxgraph.flowchart.display;whiteSpace=wrap;" parent="1" vertex="1">
          <mxGeometry x="284" y="200" width="260" height="120" as="geometry" />
        </mxCell>
        <mxCell id="h4A4DJFyEhcsKV__63Zm-3" style="edgeStyle=orthogonalEdgeStyle;rounded=0;orthogonalLoop=1;jettySize=auto;html=1;entryX=0.5;entryY=0;entryDx=0;entryDy=0;entryPerimeter=0;" parent="1" source="h4A4DJFyEhcsKV__63Zm-1" target="h4A4DJFyEhcsKV__63Zm-2" edge="1">
          <mxGeometry relative="1" as="geometry" />
        </mxCell>
        <mxCell id="_OtQ6EXLy69JyOf-uwsB-30" value="" style="edgeStyle=orthogonalEdgeStyle;rounded=0;orthogonalLoop=1;jettySize=auto;html=1;" edge="1" parent="1" source="h4A4DJFyEhcsKV__63Zm-5" target="_OtQ6EXLy69JyOf-uwsB-5">
          <mxGeometry relative="1" as="geometry" />
        </mxCell>
        <mxCell id="h4A4DJFyEhcsKV__63Zm-5" value="&lt;div style=&quot;font-size: 16px;&quot;&gt;&lt;div style=&quot;font-family: Consolas, &amp;quot;Courier New&amp;quot;, monospace; font-size: 14px; line-height: 19px; white-space: pre;&quot;&gt;&lt;div style=&quot;line-height: 19px;&quot;&gt;&lt;div style=&quot;line-height: 19px;&quot;&gt;type&lt;/div&gt;&lt;/div&gt;&lt;/div&gt;&lt;/div&gt;" style="html=1;strokeWidth=2;shape=manualInput;whiteSpace=wrap;rounded=1;size=26;arcSize=11;" parent="1" vertex="1">
          <mxGeometry x="284" y="360" width="260" height="120" as="geometry" />
        </mxCell>
        <mxCell id="h4A4DJFyEhcsKV__63Zm-11" value="&lt;font style=&quot;font-size: 21px;&quot;&gt;&lt;b&gt;Stop&lt;/b&gt;&lt;/font&gt;" style="strokeWidth=2;html=1;shape=mxgraph.flowchart.terminator;whiteSpace=wrap;" parent="1" vertex="1">
          <mxGeometry x="284" y="1770" width="260" height="120" as="geometry" />
        </mxCell>
        <mxCell id="NWXcAlGU8hvPO0A-3wgM-3" value="" style="edgeStyle=orthogonalEdgeStyle;rounded=0;orthogonalLoop=1;jettySize=auto;html=1;" parent="1" source="NWXcAlGU8hvPO0A-3wgM-1" target="NWXcAlGU8hvPO0A-3wgM-2" edge="1">
          <mxGeometry relative="1" as="geometry" />
        </mxCell>
        <mxCell id="NWXcAlGU8hvPO0A-3wgM-1" value="&lt;div style=&quot;background-color: rgb(255, 255, 255); font-family: Consolas, &amp;quot;Courier New&amp;quot;, monospace; font-size: 14px; line-height: 19px; white-space: pre;&quot;&gt;i in range(num_stars)&lt;/div&gt;" style="rhombus;whiteSpace=wrap;html=1;" parent="1" vertex="1">
          <mxGeometry x="304" y="1400" width="220" height="120" as="geometry" />
        </mxCell>
        <mxCell id="_OtQ6EXLy69JyOf-uwsB-1" style="edgeStyle=orthogonalEdgeStyle;rounded=0;orthogonalLoop=1;jettySize=auto;html=1;entryX=1;entryY=0.5;entryDx=0;entryDy=0;" edge="1" parent="1" source="NWXcAlGU8hvPO0A-3wgM-2" target="NWXcAlGU8hvPO0A-3wgM-1">
          <mxGeometry relative="1" as="geometry">
            <Array as="points">
              <mxPoint x="640" y="1620" />
              <mxPoint x="640" y="1460" />
            </Array>
          </mxGeometry>
        </mxCell>
        <mxCell id="NWXcAlGU8hvPO0A-3wgM-2" value="&lt;font style=&quot;font-size: 16px;&quot;&gt;print&amp;nbsp;&lt;/font&gt;&lt;div&gt;&lt;div style=&quot;font-family: Consolas, &amp;quot;Courier New&amp;quot;, monospace; font-size: 14px; line-height: 19px; white-space: pre;&quot;&gt;&quot;*&quot; * (num_stars - i) &lt;br&gt;&lt;/div&gt;&lt;div style=&quot;font-family: Consolas, &amp;quot;Courier New&amp;quot;, monospace; font-size: 14px; line-height: 19px; white-space: pre;&quot;&gt; &lt;/div&gt;&lt;/div&gt;" style="strokeWidth=2;html=1;shape=mxgraph.flowchart.display;whiteSpace=wrap;" parent="1" vertex="1">
          <mxGeometry x="298" y="1560" width="231" height="120" as="geometry" />
        </mxCell>
        <mxCell id="NWXcAlGU8hvPO0A-3wgM-6" style="edgeStyle=orthogonalEdgeStyle;rounded=0;orthogonalLoop=1;jettySize=auto;html=1;entryX=0.5;entryY=0;entryDx=0;entryDy=0;entryPerimeter=0;exitX=0;exitY=0.5;exitDx=0;exitDy=0;" parent="1" source="NWXcAlGU8hvPO0A-3wgM-1" target="h4A4DJFyEhcsKV__63Zm-11" edge="1">
          <mxGeometry relative="1" as="geometry">
            <Array as="points">
              <mxPoint x="160" y="1460" />
              <mxPoint x="160" y="1730" />
              <mxPoint x="414" y="1730" />
            </Array>
          </mxGeometry>
        </mxCell>
        <mxCell id="NWXcAlGU8hvPO0A-3wgM-9" value="T" style="text;html=1;align=center;verticalAlign=middle;whiteSpace=wrap;rounded=0;fontSize=16;fontStyle=0" parent="1" vertex="1">
          <mxGeometry x="414" y="1520" width="60" height="30" as="geometry" />
        </mxCell>
        <mxCell id="NWXcAlGU8hvPO0A-3wgM-10" value="F" style="text;html=1;align=center;verticalAlign=middle;whiteSpace=wrap;rounded=0;fontSize=16;fontStyle=0" parent="1" vertex="1">
          <mxGeometry x="250" y="1430" width="60" height="30" as="geometry" />
        </mxCell>
        <mxCell id="_OtQ6EXLy69JyOf-uwsB-3" value="" style="edgeStyle=orthogonalEdgeStyle;rounded=0;orthogonalLoop=1;jettySize=auto;html=1;labelBackgroundColor=none;fontColor=default;fontSize=14;fontStyle=1;exitX=1;exitY=0;exitDx=0;exitDy=0;" edge="1" parent="1" source="_OtQ6EXLy69JyOf-uwsB-27" target="_OtQ6EXLy69JyOf-uwsB-8">
          <mxGeometry relative="1" as="geometry">
            <mxPoint x="417" y="640" as="sourcePoint" />
            <Array as="points">
              <mxPoint x="414" y="670" />
              <mxPoint x="414" y="670" />
            </Array>
          </mxGeometry>
        </mxCell>
        <mxCell id="_OtQ6EXLy69JyOf-uwsB-4" value="" style="edgeStyle=orthogonalEdgeStyle;rounded=0;orthogonalLoop=1;jettySize=auto;html=1;labelBackgroundColor=none;fontColor=default;fontSize=14;fontStyle=1" edge="1" parent="1" source="_OtQ6EXLy69JyOf-uwsB-5">
          <mxGeometry relative="1" as="geometry">
            <mxPoint x="568" y="580" as="targetPoint" />
          </mxGeometry>
        </mxCell>
        <mxCell id="_OtQ6EXLy69JyOf-uwsB-5" value="&lt;br style=&quot;font-size: 14px;&quot;&gt;&lt;div style=&quot;font-family: Consolas, &amp;quot;Courier New&amp;quot;, monospace; font-size: 14px; line-height: 19px; white-space: pre;&quot;&gt;&lt;div style=&quot;font-size: 14px;&quot;&gt;&lt;span style=&quot;font-size: 14px;&quot;&gt;type&lt;/span&gt;&lt;span style=&quot;font-size: 14px;&quot;&gt; == &lt;/span&gt;&lt;span style=&quot;font-size: 14px;&quot;&gt;&quot;1&quot;&lt;/span&gt;&lt;/div&gt;&lt;/div&gt;&lt;div style=&quot;font-size: 14px;&quot;&gt;&lt;br style=&quot;font-size: 14px;&quot;&gt;&lt;/div&gt;" style="rhombus;whiteSpace=wrap;html=1;strokeWidth=2;rounded=1;arcSize=11;labelBackgroundColor=none;fontColor=default;fontSize=14;fontStyle=1" vertex="1" parent="1">
          <mxGeometry x="304" y="520" width="220" height="120" as="geometry" />
        </mxCell>
        <mxCell id="_OtQ6EXLy69JyOf-uwsB-6" value="" style="edgeStyle=orthogonalEdgeStyle;rounded=0;orthogonalLoop=1;jettySize=auto;html=1;labelBackgroundColor=none;fontColor=default;fontSize=14;fontStyle=1" edge="1" parent="1" source="_OtQ6EXLy69JyOf-uwsB-8" target="_OtQ6EXLy69JyOf-uwsB-11">
          <mxGeometry relative="1" as="geometry" />
        </mxCell>
        <mxCell id="_OtQ6EXLy69JyOf-uwsB-7" value="" style="edgeStyle=orthogonalEdgeStyle;rounded=0;orthogonalLoop=1;jettySize=auto;html=1;labelBackgroundColor=none;fontColor=default;fontSize=14;fontStyle=1" edge="1" parent="1" source="_OtQ6EXLy69JyOf-uwsB-8">
          <mxGeometry relative="1" as="geometry">
            <mxPoint x="568" y="740" as="targetPoint" />
          </mxGeometry>
        </mxCell>
        <mxCell id="_OtQ6EXLy69JyOf-uwsB-8" value="&lt;br style=&quot;font-size: 14px;&quot;&gt;&lt;div style=&quot;font-family: Consolas, &amp;quot;Courier New&amp;quot;, monospace; font-size: 14px; line-height: 19px; white-space: pre;&quot;&gt;&lt;div style=&quot;font-size: 14px;&quot;&gt;&lt;span style=&quot;font-size: 14px;&quot;&gt;type&lt;/span&gt;&lt;span style=&quot;font-size: 14px;&quot;&gt; == &lt;/span&gt;&lt;span style=&quot;font-size: 14px;&quot;&gt;&quot;2&quot;&lt;/span&gt;&lt;/div&gt;&lt;/div&gt;&lt;div style=&quot;font-size: 14px;&quot;&gt;&lt;br style=&quot;font-size: 14px;&quot;&gt;&lt;/div&gt;" style="rhombus;whiteSpace=wrap;html=1;strokeWidth=2;rounded=1;arcSize=11;labelBackgroundColor=none;fontColor=default;fontSize=14;fontStyle=1" vertex="1" parent="1">
          <mxGeometry x="304" y="680" width="220" height="120" as="geometry" />
        </mxCell>
        <mxCell id="_OtQ6EXLy69JyOf-uwsB-9" value="" style="edgeStyle=orthogonalEdgeStyle;rounded=0;orthogonalLoop=1;jettySize=auto;html=1;labelBackgroundColor=none;fontColor=default;fontSize=14;fontStyle=1" edge="1" parent="1" source="_OtQ6EXLy69JyOf-uwsB-11">
          <mxGeometry relative="1" as="geometry">
            <mxPoint x="568" y="900" as="targetPoint" />
          </mxGeometry>
        </mxCell>
        <mxCell id="_OtQ6EXLy69JyOf-uwsB-10" value="" style="edgeStyle=orthogonalEdgeStyle;rounded=0;orthogonalLoop=1;jettySize=auto;html=1;" edge="1" parent="1" source="_OtQ6EXLy69JyOf-uwsB-11" target="_OtQ6EXLy69JyOf-uwsB-13">
          <mxGeometry relative="1" as="geometry" />
        </mxCell>
        <mxCell id="_OtQ6EXLy69JyOf-uwsB-11" value="&lt;br style=&quot;font-size: 14px;&quot;&gt;&lt;div style=&quot;font-family: Consolas, &amp;quot;Courier New&amp;quot;, monospace; font-size: 14px; line-height: 19px; white-space: pre;&quot;&gt;&lt;div style=&quot;font-size: 14px;&quot;&gt;&lt;span style=&quot;font-size: 14px;&quot;&gt;type&lt;/span&gt;&lt;span style=&quot;font-size: 14px;&quot;&gt; == &lt;/span&gt;&lt;span style=&quot;font-size: 14px;&quot;&gt;&quot;3&quot;&lt;/span&gt;&lt;/div&gt;&lt;/div&gt;&lt;div style=&quot;font-size: 14px;&quot;&gt;&lt;br style=&quot;font-size: 14px;&quot;&gt;&lt;/div&gt;" style="rhombus;whiteSpace=wrap;html=1;strokeWidth=2;rounded=1;arcSize=11;labelBackgroundColor=none;fontColor=default;fontSize=14;fontStyle=1" vertex="1" parent="1">
          <mxGeometry x="304" y="840" width="220" height="120" as="geometry" />
        </mxCell>
        <mxCell id="_OtQ6EXLy69JyOf-uwsB-12" style="edgeStyle=orthogonalEdgeStyle;rounded=0;orthogonalLoop=1;jettySize=auto;html=1;entryX=0.5;entryY=0;entryDx=0;entryDy=0;labelBackgroundColor=none;fontColor=default;fontSize=14;fontStyle=1" edge="1" parent="1" source="_OtQ6EXLy69JyOf-uwsB-13">
          <mxGeometry relative="1" as="geometry">
            <mxPoint x="414" y="1160" as="targetPoint" />
            <Array as="points" />
          </mxGeometry>
        </mxCell>
        <mxCell id="_OtQ6EXLy69JyOf-uwsB-13" value="&lt;div style=&quot;font-family: Consolas, &amp;quot;Courier New&amp;quot;, monospace; font-size: 14px; line-height: 19px; white-space: pre;&quot;&gt;&lt;div style=&quot;line-height: 19px; font-size: 14px;&quot;&gt;&lt;span style=&quot;font-size: 14px;&quot;&gt;print&lt;/span&gt;&lt;/div&gt;&lt;/div&gt;&lt;div style=&quot;font-family: Consolas, &amp;quot;Courier New&amp;quot;, monospace; font-size: 14px; line-height: 19px; white-space: pre;&quot;&gt;&lt;span style=&quot;font-size: 14px;&quot;&gt;&quot;รูปแบบไม่ถูกต้อง&quot;&lt;/span&gt;&lt;/div&gt;" style="strokeWidth=2;html=1;shape=mxgraph.flowchart.display;whiteSpace=wrap;labelBackgroundColor=none;fontColor=default;fontSize=14;fontStyle=1" vertex="1" parent="1">
          <mxGeometry x="304" y="1000" width="220" height="120" as="geometry" />
        </mxCell>
        <mxCell id="_OtQ6EXLy69JyOf-uwsB-14" style="edgeStyle=orthogonalEdgeStyle;rounded=0;orthogonalLoop=1;jettySize=auto;html=1;entryX=1;entryY=0.5;entryDx=0;entryDy=0;" edge="1" parent="1" target="_OtQ6EXLy69JyOf-uwsB-20">
          <mxGeometry relative="1" as="geometry">
            <Array as="points">
              <mxPoint x="841" y="580" />
              <mxPoint x="841" y="1340" />
            </Array>
            <mxPoint x="788" y="580" as="sourcePoint" />
          </mxGeometry>
        </mxCell>
        <mxCell id="_OtQ6EXLy69JyOf-uwsB-16" style="edgeStyle=orthogonalEdgeStyle;rounded=0;orthogonalLoop=1;jettySize=auto;html=1;entryX=1;entryY=0.5;entryDx=0;entryDy=0;exitX=1;exitY=0.5;exitDx=0;exitDy=0;" edge="1" parent="1" source="_OtQ6EXLy69JyOf-uwsB-33" target="_OtQ6EXLy69JyOf-uwsB-20">
          <mxGeometry relative="1" as="geometry">
            <Array as="points">
              <mxPoint x="841" y="740" />
              <mxPoint x="841" y="1340" />
            </Array>
            <mxPoint x="801" y="740" as="sourcePoint" />
          </mxGeometry>
        </mxCell>
        <mxCell id="_OtQ6EXLy69JyOf-uwsB-18" style="edgeStyle=orthogonalEdgeStyle;rounded=0;orthogonalLoop=1;jettySize=auto;html=1;entryX=1;entryY=0.5;entryDx=0;entryDy=0;" edge="1" parent="1" target="_OtQ6EXLy69JyOf-uwsB-20">
          <mxGeometry relative="1" as="geometry">
            <Array as="points">
              <mxPoint x="841" y="900" />
              <mxPoint x="841" y="1340" />
            </Array>
            <mxPoint x="788" y="900" as="sourcePoint" />
          </mxGeometry>
        </mxCell>
        <mxCell id="_OtQ6EXLy69JyOf-uwsB-37" value="" style="edgeStyle=orthogonalEdgeStyle;rounded=0;orthogonalLoop=1;jettySize=auto;html=1;" edge="1" parent="1" source="_OtQ6EXLy69JyOf-uwsB-20" target="NWXcAlGU8hvPO0A-3wgM-1">
          <mxGeometry relative="1" as="geometry" />
        </mxCell>
        <mxCell id="_OtQ6EXLy69JyOf-uwsB-20" value="" style="ellipse;whiteSpace=wrap;html=1;strokeWidth=2;labelBackgroundColor=none;fontColor=default;fontSize=14;fontStyle=1" vertex="1" parent="1">
          <mxGeometry x="394" y="1320" width="40" height="40" as="geometry" />
        </mxCell>
        <mxCell id="_OtQ6EXLy69JyOf-uwsB-24" value="T" style="text;html=1;align=center;verticalAlign=middle;whiteSpace=wrap;rounded=0;fontSize=16;" vertex="1" parent="1">
          <mxGeometry x="511" y="550" width="60" height="30" as="geometry" />
        </mxCell>
        <mxCell id="_OtQ6EXLy69JyOf-uwsB-25" value="T" style="text;html=1;align=center;verticalAlign=middle;whiteSpace=wrap;rounded=0;fontSize=16;" vertex="1" parent="1">
          <mxGeometry x="511" y="710" width="60" height="30" as="geometry" />
        </mxCell>
        <mxCell id="_OtQ6EXLy69JyOf-uwsB-26" value="T" style="text;html=1;align=center;verticalAlign=middle;whiteSpace=wrap;rounded=0;fontSize=16;" vertex="1" parent="1">
          <mxGeometry x="511" y="870" width="60" height="30" as="geometry" />
        </mxCell>
        <mxCell id="_OtQ6EXLy69JyOf-uwsB-27" value="F" style="text;html=1;align=center;verticalAlign=middle;whiteSpace=wrap;rounded=0;fontSize=16;" vertex="1" parent="1">
          <mxGeometry x="354" y="640" width="60" height="30" as="geometry" />
        </mxCell>
        <mxCell id="_OtQ6EXLy69JyOf-uwsB-28" value="F" style="text;html=1;align=center;verticalAlign=middle;whiteSpace=wrap;rounded=0;fontSize=16;" vertex="1" parent="1">
          <mxGeometry x="354" y="800" width="60" height="30" as="geometry" />
        </mxCell>
        <mxCell id="_OtQ6EXLy69JyOf-uwsB-29" value="F" style="text;html=1;align=center;verticalAlign=middle;whiteSpace=wrap;rounded=0;fontSize=16;" vertex="1" parent="1">
          <mxGeometry x="354" y="960" width="60" height="30" as="geometry" />
        </mxCell>
        <mxCell id="_OtQ6EXLy69JyOf-uwsB-32" value="&lt;div style=&quot;font-family: Consolas, &amp;quot;Courier New&amp;quot;, monospace; font-size: 14px; line-height: 19px; white-space: pre;&quot;&gt;&lt;span style=&quot;background-color: rgb(255, 255, 255);&quot;&gt;num_stars = 3&lt;/span&gt;&lt;/div&gt;" style="rounded=1;whiteSpace=wrap;html=1;absoluteArcSize=1;arcSize=14;strokeWidth=2;" vertex="1" parent="1">
          <mxGeometry x="571" y="520" width="216" height="120" as="geometry" />
        </mxCell>
        <mxCell id="_OtQ6EXLy69JyOf-uwsB-33" value="&lt;span style=&quot;font-family: Consolas, &amp;quot;Courier New&amp;quot;, monospace; font-size: 14px; white-space: pre; background-color: rgb(255, 255, 255);&quot;&gt;num_stars&lt;/span&gt;&lt;span style=&quot;font-family: Consolas, &amp;quot;Courier New&amp;quot;, monospace; font-size: 14px; white-space: pre; background-color: rgb(255, 255, 255);&quot;&gt; = 5&lt;/span&gt;" style="rounded=1;whiteSpace=wrap;html=1;absoluteArcSize=1;arcSize=14;strokeWidth=2;" vertex="1" parent="1">
          <mxGeometry x="571" y="680" width="216" height="120" as="geometry" />
        </mxCell>
        <mxCell id="_OtQ6EXLy69JyOf-uwsB-34" value="&lt;span style=&quot;font-family: Consolas, &amp;quot;Courier New&amp;quot;, monospace; font-size: 14px; white-space: pre; background-color: rgb(255, 255, 255);&quot;&gt;num_stars&lt;/span&gt;&lt;span style=&quot;font-family: Consolas, &amp;quot;Courier New&amp;quot;, monospace; font-size: 14px; white-space: pre; background-color: rgb(255, 255, 255);&quot;&gt; = 7&lt;/span&gt;" style="rounded=1;whiteSpace=wrap;html=1;absoluteArcSize=1;arcSize=14;strokeWidth=2;" vertex="1" parent="1">
          <mxGeometry x="571" y="840" width="216" height="120" as="geometry" />
        </mxCell>
        <mxCell id="_OtQ6EXLy69JyOf-uwsB-36" value="" style="edgeStyle=orthogonalEdgeStyle;rounded=0;orthogonalLoop=1;jettySize=auto;html=1;" edge="1" parent="1" source="_OtQ6EXLy69JyOf-uwsB-35" target="_OtQ6EXLy69JyOf-uwsB-20">
          <mxGeometry relative="1" as="geometry" />
        </mxCell>
        <mxCell id="_OtQ6EXLy69JyOf-uwsB-35" value="&lt;span style=&quot;font-family: Consolas, &amp;quot;Courier New&amp;quot;, monospace; font-size: 14px; white-space: pre; background-color: rgb(255, 255, 255);&quot;&gt;num_stars&lt;/span&gt;&lt;span style=&quot;font-family: Consolas, &amp;quot;Courier New&amp;quot;, monospace; font-size: 14px; white-space: pre; background-color: rgb(255, 255, 255);&quot;&gt; = 0&lt;/span&gt;" style="rounded=1;whiteSpace=wrap;html=1;absoluteArcSize=1;arcSize=14;strokeWidth=2;" vertex="1" parent="1">
          <mxGeometry x="306" y="1160" width="216" height="120" as="geometry" />
        </mxCell>
      </root>
    </mxGraphModel>
  </diagram>
</mxfile>
